<?xml version="1.0" encoding="UTF-8" standalone="no"?>
<!-- Created with Inkscape (http://www.inkscape.org/) -->

<svg
   width="400"
   height="400"
   viewBox="0 0 105.83333 105.83334"
   version="1.1"
   id="svg5"
   inkscape:version="1.2.1 (9c6d41e410, 2022-07-14)"
   sodipodi:docname="icon.svg"
   inkscape:export-filename="icon.png"
   inkscape:export-xdpi="122.88"
   inkscape:export-ydpi="122.88"
   xmlns:inkscape="http://www.inkscape.org/namespaces/inkscape"
   xmlns:sodipodi="http://sodipodi.sourceforge.net/DTD/sodipodi-0.dtd"
   xmlns="http://www.w3.org/2000/svg"
   xmlns:svg="http://www.w3.org/2000/svg"
   xmlns:rdf="http://www.w3.org/1999/02/22-rdf-syntax-ns#"
   xmlns:cc="http://creativecommons.org/ns#"
   xmlns:dc="http://purl.org/dc/elements/1.1/">
  <title
     id="title6720">github-version-checker icon</title>
  <sodipodi:namedview
     id="namedview7"
     pagecolor="#505050"
     bordercolor="#ffffff"
     borderopacity="1"
     inkscape:showpageshadow="0"
     inkscape:pageopacity="0"
     inkscape:pagecheckerboard="true"
     inkscape:deskcolor="#505050"
     inkscape:document-units="mm"
     showgrid="false"
     inkscape:zoom="1.1364366"
     inkscape:cx="218.66595"
     inkscape:cy="216.46609"
     inkscape:window-width="1920"
     inkscape:window-height="1009"
     inkscape:window-x="1912"
     inkscape:window-y="-8"
     inkscape:window-maximized="1"
     inkscape:current-layer="svg5"
     showguides="true" />
  <defs
     id="defs2" />
  <g
     id="g6695"
     inkscape:label="Icon"
     transform="translate(-23.805754,-14.188546)">
    <path
       id="rect1367"
       style="fill:#c457ff;fill-opacity:1;stroke:#5e1b82;stroke-width:3.83977;stroke-linecap:round;stroke-linejoin:miter;stroke-dasharray:none;stroke-dashoffset:0;stroke-opacity:1"
       d="m 95.172349,24.560347 26.109241,33.304124 h -14.1174 c 0,0 -0.25278,18.060393 -8.777661,31.283568 C 89.861639,102.37121 70.566355,112.18801 50.632447,112.0976 83.92186,93.57106 83.180518,57.864471 83.180518,57.864471 H 69.063116 Z"
       sodipodi:nodetypes="ccczcccc"
       inkscape:label="Pfeil" />
    <g
       id="g6679"
       style="display:inline"
       inkscape:label="Lupe"
       transform="rotate(8.2257816,14.299622,-25.287756)">
      <path
         id="rect5106"
         style="display:inline;fill:#c457ff;stroke:#5e1b82;stroke-width:4;stroke-linecap:round"
         inkscape:label="Halter"
         d="m 67.733335,66.701424 c 3.408213,0 6.15201,2.743796 6.15201,6.152009 V 97.85343 c 0,3.40821 -2.743797,6.15201 -6.15201,6.15201 -3.408213,0 -6.152009,-2.7438 -6.152009,-6.15201 V 72.853433 c 0,-3.408213 2.743796,-6.152009 6.152009,-6.152009 z" />
      <path
         id="rect5836"
         style="fill:#5e1b82;stroke-width:3.05124;stroke-linecap:round"
         inkscape:label="Verbinder"
         d="m 65.73333,51.997845 h 4 v 14.703581 h -4 z" />
      <path
         id="path5052"
         style="fill:#c457ff;stroke:#5e1b82;stroke-width:4;stroke-linecap:round"
         inkscape:label="Linse"
         d="M 86.155102,33.576077 A 18.421772,18.42177 0 0 1 67.73333,51.997847 18.421772,18.42177 0 0 1 49.311558,33.576077 18.421772,18.42177 0 0 1 67.73333,15.154306 18.421772,18.42177 0 0 1 86.155102,33.576077 Z" />
    </g>
  </g>
  <metadata
     id="metadata6718">
    <rdf:RDF>
      <cc:Work
         rdf:about="">
        <dc:title>github-version-checker icon</dc:title>
      </cc:Work>
    </rdf:RDF>
  </metadata>
</svg>
