<svg width="400" height="400" version="1.1" viewBox="0 0 105.83 105.83" xmlns="http://www.w3.org/2000/svg">
 <title>github-version-checker icon</title>
 <g transform="translate(-23.806 -14.189)" stroke-linecap="round">
  <path d="m95.172 24.56 26.109 33.304h-14.117s-0.25278 18.06-8.7777 31.284c-8.5249 13.223-27.82 23.04-47.754 22.95 33.289-18.527 32.548-54.233 32.548-54.233h-14.117z" fill="#c457ff" stroke="#5e1b82" stroke-width="3.8398"/>
  <g transform="rotate(8.2258 14.3 -25.288)">
   <path d="m67.733 66.701c3.4082 0 6.152 2.7438 6.152 6.152v25c0 3.4082-2.7438 6.152-6.152 6.152s-6.152-2.7438-6.152-6.152v-25c0-3.4082 2.7438-6.152 6.152-6.152z" fill="#c457ff" stroke="#5e1b82" stroke-width="4"/>
   <path d="m65.733 51.998h4v14.704h-4z" fill="#5e1b82" stroke-width="3.0512"/>
   <path d="m86.155 33.576a18.422 18.422 0 0 1-18.422 18.422 18.422 18.422 0 0 1-18.422-18.422 18.422 18.422 0 0 1 18.422-18.422 18.422 18.422 0 0 1 18.422 18.422z" fill="#c457ff" stroke="#5e1b82" stroke-width="4"/>
  </g>
 </g>
</svg>
